<svg width="119" height="35" viewBox="0 0 119 35" fill="white" xmlns="http://www.w3.org/2000/svg">
    <path d="M17.8455 0C7.98992 0 0 7.83515 0 17.5001C0 27.1655 7.98992 35 17.8455 35C27.7022 35 35.6912 27.1655 35.6912 17.5001C35.6912 7.83578 27.7022 0.000835906 17.8453 0.000835906L17.8455 0ZM26.0294 25.2402C25.9532 25.3625 25.8532 25.469 25.735 25.5534C25.6169 25.6378 25.4829 25.6986 25.3408 25.7321C25.1987 25.7657 25.0512 25.7715 24.9068 25.7491C24.7624 25.7267 24.6239 25.6766 24.4993 25.6017C20.3094 23.0919 15.0347 22.5235 8.82292 23.9153C8.53528 23.9794 8.23345 23.9289 7.98374 23.7749C7.73404 23.6209 7.55691 23.376 7.49127 23.094C7.45857 22.9543 7.45429 22.8098 7.47866 22.6685C7.50303 22.5272 7.55558 22.3921 7.63329 22.2707C7.711 22.1494 7.81236 22.0443 7.93155 21.9615C8.05074 21.8786 8.18542 21.8196 8.32789 21.7879C15.1257 20.2649 20.9568 20.9206 25.6607 23.7397C26.1849 24.0553 26.3511 24.7261 26.0294 25.2402ZM28.2136 20.4751C27.8109 21.1171 26.9542 21.3198 26.3 20.9248C21.5031 18.0334 14.1911 17.196 8.51734 18.885C7.78151 19.103 7.00434 18.6963 6.78101 17.9759C6.67445 17.6296 6.71228 17.256 6.88621 16.937C7.06014 16.618 7.35598 16.3797 7.70884 16.2742C14.1898 14.3458 22.2468 15.2799 27.7554 18.5995C28.4097 18.9945 28.6164 19.8344 28.2136 20.4751ZM28.4011 15.5132C22.6496 12.1631 13.1603 11.855 7.66899 13.4894C6.78719 13.7517 5.85467 13.2635 5.58744 12.3988C5.45895 11.9833 5.50397 11.5348 5.71261 11.1519C5.92125 10.769 6.27642 10.483 6.70003 10.3569C13.0037 8.48026 23.4828 8.84284 30.1046 12.6978C30.2934 12.8073 30.4582 12.9522 30.5897 13.1243C30.7213 13.2963 30.8169 13.4921 30.8711 13.7005C30.9254 13.9088 30.9372 14.1256 30.9058 14.3385C30.8745 14.5513 30.8007 14.756 30.6885 14.9408C30.2197 15.7186 29.1926 15.975 28.402 15.5132H28.4011ZM48.5517 16.1551C45.4703 15.4346 44.9227 14.9289 44.9227 13.8662C44.9227 12.8623 45.8859 12.1867 47.32 12.1867C48.7094 12.1867 50.086 12.6997 51.5309 13.7559C51.5735 13.7878 51.6289 13.8006 51.6822 13.7922C51.709 13.7885 51.7347 13.7794 51.7578 13.7655C51.7809 13.7516 51.8008 13.7333 51.8164 13.7116L53.3209 11.6318C53.3506 11.5906 53.3632 11.5398 53.356 11.4898C53.3489 11.4398 53.3226 11.3943 53.2825 11.3627C51.5628 10.01 49.6279 9.35232 47.3648 9.35232C44.0383 9.35232 41.7134 11.3102 41.7134 14.1116C41.7134 17.1156 43.7187 18.1793 47.1837 19.0003C50.1308 19.6664 50.6295 20.2243 50.6295 21.2216C50.6295 22.327 49.6236 23.0146 48.0041 23.0146C46.2055 23.0146 44.7373 22.419 43.0964 21.0272C43.0555 20.9933 43.0029 20.9761 42.9494 20.9791C42.894 20.9833 42.845 21.0084 42.8109 21.0481L41.1231 23.0167C41.0528 23.1003 41.0613 23.2215 41.1423 23.2925C43.0517 24.9643 45.4 25.8462 47.9359 25.8462C51.5202 25.8462 53.8366 23.9257 53.8366 20.952C53.843 18.4428 52.3108 17.0531 48.5581 16.1578L48.5517 16.1551ZM61.9471 13.1751C60.3936 13.1751 59.1193 13.7753 58.0666 15.0051V13.6209C58.0668 13.5685 58.0458 13.5182 58.0083 13.4811C57.9707 13.4439 57.9196 13.4228 57.8663 13.4226H55.1067C54.9958 13.4226 54.9063 13.5116 54.9063 13.6209V29.0017C54.9063 29.1104 54.9958 29.2003 55.1067 29.2003H57.8663C57.9771 29.2003 58.0666 29.1104 58.0666 29.0017V24.1472C59.1193 25.3029 60.3936 25.8692 61.9471 25.8692C64.8346 25.8692 67.7583 23.6896 67.7583 19.5228C67.7626 15.3552 64.8389 13.1749 61.9492 13.1749L61.9471 13.1751ZM64.549 19.5228C64.549 21.6437 63.2172 23.1253 61.3078 23.1253C59.4219 23.1253 57.9984 21.5768 57.9984 19.5228C57.9984 17.4685 59.4219 15.9205 61.3078 15.9205C63.1852 15.9202 64.549 17.4351 64.549 19.5228ZM75.2487 13.1751C71.5302 13.1751 68.6171 15.9829 68.6171 19.5681C68.6171 23.1149 71.511 25.8922 75.204 25.8922C78.9353 25.8922 81.8569 23.094 81.8569 19.5228C81.8569 15.9637 78.9545 13.1755 75.2487 13.1755V13.1751ZM75.2487 23.1462C73.2712 23.1462 71.7795 21.5873 71.7795 19.5217C71.7795 17.4468 73.22 15.9411 75.204 15.9411C77.1943 15.9411 78.6945 17.4995 78.6945 19.5671C78.6945 21.6416 77.2455 23.1462 75.2487 23.1462ZM89.797 13.4226H86.7603V10.3786C86.7604 10.3527 86.7553 10.327 86.7453 10.303C86.7353 10.2791 86.7206 10.2573 86.702 10.2389C86.6834 10.2205 86.6613 10.2058 86.6369 10.1958C86.6126 10.1858 86.5864 10.1806 86.56 10.1805H83.8004C83.6896 10.1805 83.5979 10.2695 83.5979 10.3786V13.4226H82.2725C82.1616 13.4226 82.0721 13.5116 82.0721 13.6209V15.9462C82.0721 16.0552 82.1616 16.1445 82.2725 16.1445H83.5979V22.1619C83.5979 24.5923 84.8318 25.8253 87.2675 25.8253C88.2563 25.8253 89.0767 25.6247 89.8502 25.1942C89.9142 25.1608 89.9525 25.0939 89.9525 25.0228V22.8077C89.9525 22.7408 89.9163 22.676 89.8566 22.6405C89.8276 22.6223 89.7942 22.6119 89.7598 22.6105C89.7253 22.609 89.6911 22.6165 89.6606 22.6321C89.13 22.8934 88.6164 23.0146 88.041 23.0146C87.1567 23.0146 86.7603 22.6196 86.7603 21.7377V16.1455H89.797C89.9078 16.1455 89.9973 16.0565 89.9973 15.9472V13.6221C89.9982 13.5962 89.9937 13.5703 89.9841 13.5461C89.9745 13.5219 89.96 13.4999 89.9415 13.4814C89.923 13.4628 89.9008 13.4482 89.8763 13.4383C89.8518 13.4284 89.8256 13.4235 89.7991 13.4238L89.797 13.4226ZM100.375 13.4345V13.0606C100.375 11.9608 100.806 11.4703 101.769 11.4703C102.344 11.4703 102.807 11.5823 103.324 11.7516C103.388 11.7712 103.454 11.7614 103.506 11.724C103.532 11.7056 103.553 11.6814 103.567 11.6534C103.582 11.6255 103.589 11.5945 103.589 11.5631V9.28315C103.589 9.24057 103.576 9.19899 103.55 9.16471C103.524 9.13043 103.488 9.10532 103.446 9.09319C102.9 8.93374 102.201 8.77011 101.153 8.77011C98.6065 8.77011 97.2576 10.1774 97.2576 12.8383V13.4109H95.9321C95.8213 13.4109 95.7296 13.4999 95.7296 13.609V15.9462C95.7296 16.0552 95.8213 16.1445 95.9321 16.1445H97.2576V25.4241C97.2576 25.5348 97.3492 25.6226 97.46 25.6226H100.217C100.33 25.6226 100.42 25.5348 100.42 25.4241V16.1451H102.996L106.943 25.4241C106.495 26.3979 106.054 26.5922 105.453 26.5922C104.967 26.5922 104.454 26.4501 103.932 26.168C103.882 26.1435 103.825 26.1383 103.772 26.1534C103.719 26.1722 103.674 26.2098 103.653 26.26L102.717 28.2724C102.672 28.3685 102.711 28.4793 102.805 28.5295C103.78 29.0477 104.661 29.2692 105.75 29.2692C107.787 29.2692 108.914 28.3372 109.905 25.8337L114.691 13.7053C114.704 13.6753 114.708 13.6427 114.704 13.6106C114.701 13.5784 114.689 13.5477 114.67 13.5212C114.652 13.4947 114.627 13.473 114.599 13.4579C114.57 13.4429 114.538 13.4351 114.506 13.4351H111.633C111.546 13.4351 111.469 13.4888 111.441 13.568L108.498 21.8088L105.276 13.5626C105.262 13.5252 105.236 13.493 105.203 13.4702C105.169 13.4475 105.13 13.4352 105.089 13.4351H100.375V13.4345ZM94.2422 13.4226H91.4826C91.3718 13.4226 91.2801 13.5116 91.2801 13.6209V25.4241C91.2801 25.5348 91.3718 25.6226 91.4826 25.6226H94.2422C94.353 25.6226 94.4446 25.5348 94.4446 25.4241V13.6217C94.4447 13.5956 94.4395 13.5698 94.4294 13.5457C94.4192 13.5216 94.4043 13.4997 94.3855 13.4813C94.3667 13.4629 94.3443 13.4482 94.3197 13.4383C94.2951 13.4284 94.2688 13.4233 94.2422 13.4234V13.4226ZM92.8784 8.04789C91.7852 8.04789 90.8987 8.91556 90.8987 9.9874C90.8987 10.2423 90.9499 10.4948 91.0494 10.7303C91.1489 10.9658 91.2947 11.1798 91.4785 11.3601C91.6624 11.5404 91.8806 11.6833 92.1208 11.7809C92.361 11.8784 92.6184 11.9286 92.8784 11.9286C93.9716 11.9286 94.8559 11.0599 94.8559 9.9874C94.8559 8.91577 93.9694 8.04789 92.8784 8.04789ZM117.048 17.2178C115.957 17.2178 115.107 16.3578 115.107 15.3136C115.107 14.2693 115.968 13.3996 117.059 13.3996C118.15 13.3996 119 14.2593 119 15.3027C119 16.347 118.139 17.2178 117.048 17.2178ZM117.059 13.5889C116.063 13.5889 115.311 14.3642 115.311 15.3136C115.311 16.2625 116.059 17.0274 117.048 17.0274C118.043 17.0274 118.795 16.2527 118.795 15.3027C118.795 14.3538 118.047 13.5889 117.059 13.5889ZM117.489 15.4985L118.039 16.2525H117.574L117.08 15.5608H116.656V16.2525H116.268V14.2539H117.176C117.651 14.2539 117.962 14.4915 117.962 14.8915C117.964 15.2191 117.77 15.4193 117.491 15.4985H117.489ZM117.161 14.5968H116.656V15.2289H117.161C117.412 15.2289 117.564 15.108 117.564 14.9126C117.564 14.7069 117.412 14.5968 117.161 14.5968Z" fill="white"/>
    </svg>
    